<svg xmlns="http://www.w3.org/2000/svg" width="750" height="550" version="1.1" viewBox="0 0 703.11806 515.61995" id="svg90"><path id="rect12" fill="#d3d3d4" fill-opacity="1" fill-rule="evenodd" stroke-width="1.06" d="M0 0h703.118v515.62H0z"/><path id="rect14" fill="#f9f9f9" fill-rule="evenodd" stroke-width="1.086" d="M31.9 22.651h643.228V495.78H31.9z"/><path id="rect26" fill="#66bb6a" fill-rule="evenodd" stroke-width="1.059" d="M31.9 22.651h643.228v83.876H31.9z"/><g id="g1358" transform="matrix(.77537 0 0 .77537 12.762 -7.227)" fill-rule="evenodd"><rect x="46.085" y="169.911" width="242.065" height="214.569" ry="2.915" id="rect24" fill="#c8e6c9" stroke-width="1.056"/><path id="rect44" fill="#66bb6a" stroke-width=".86" d="M62.96 287.969h206.453v27.192H62.96z"/><path id="rect58" fill="#e8f5e9" stroke-width="1.76" d="M63.522 187.208h206.069v95.605H63.522z"/><path d="M228.209 232.24l-84.216 20.661-39.3-11.806-41.171 13.836v27.882H269.38v-36.857z" id="path60" fill="#66bb6a" stroke-width="1.515"/><path id="rect62" fill="#66bb6a" stroke-width="1.177" d="M63.116 324.661h206.137v8.833H63.116z"/><path id="rect64" fill="#66bb6a" stroke-width="1.177" d="M63.116 340.125h206.137v8.833H63.116z"/><path id="rect68" fill="#66bb6a" stroke-width="1.177" d="M63.116 355.682h151.741v8.833H63.116z"/><path id="rect1027" fill="#098ec9" fill-opacity="1" stroke-width=".488" d="M68.627 271.887h40.85v5.633h-40.85z"/></g><g transform="matrix(.77537 0 0 .77537 434.33 -6.023)" id="g1376" fill-rule="evenodd"><rect id="rect1360" ry="2.915" height="214.569" width="242.065" y="169.911" x="46.085" fill="#c8e6c9" stroke-width="1.056"/><path id="rect1362" fill="#66bb6a" stroke-width=".86" d="M62.96 287.969h206.453v27.192H62.96z"/><path id="rect1364" fill="#e8f5e9" stroke-width="1.76" d="M63.522 187.208h206.069v95.605H63.522z"/><path id="path1366" d="M228.209 232.24l-84.216 20.661-39.3-11.806-41.171 13.836v27.882H269.38v-36.857z" fill="#66bb6a" stroke-width="1.515"/><path id="rect1368" fill="#66bb6a" stroke-width="1.177" d="M63.116 324.661h206.137v8.833H63.116z"/><path id="rect1370" fill="#66bb6a" stroke-width="1.177" d="M63.116 340.125h206.137v8.833H63.116z"/><path id="rect1372" fill="#66bb6a" stroke-width="1.177" d="M63.116 355.682h151.741v8.833H63.116z"/><path id="rect1374" fill="#098ec9" fill-opacity="1" stroke-width=".488" d="M68.627 271.887h40.85v5.633h-40.85z"/></g><g id="g1394" transform="matrix(.77537 0 0 .77537 224.14 -6.023)" fill-rule="evenodd"><rect x="46.085" y="169.911" width="242.065" height="214.569" ry="2.915" id="rect1378" fill="#c8e6c9" stroke-width="1.056"/><path id="rect1380" fill="#66bb6a" stroke-width=".86" d="M62.96 287.969h206.453v27.192H62.96z"/><path id="rect1382" fill="#e8f5e9" stroke-width="1.76" d="M63.522 187.208h206.069v95.605H63.522z"/><path d="M228.209 232.24l-84.216 20.661-39.3-11.806-41.171 13.836v27.882H269.38v-36.857z" id="path1384" fill="#66bb6a" stroke-width="1.515"/><path id="rect1386" fill="#66bb6a" stroke-width="1.177" d="M63.116 324.661h206.137v8.833H63.116z"/><path id="rect1388" fill="#66bb6a" stroke-width="1.177" d="M63.116 340.125h206.137v8.833H63.116z"/><path id="rect1390" fill="#66bb6a" stroke-width="1.177" d="M63.116 355.682h151.741v8.833H63.116z"/><path id="rect1392" fill="#098ec9" fill-opacity="1" stroke-width=".488" d="M68.627 271.887h40.85v5.633h-40.85z"/></g><g transform="matrix(.77537 0 0 .77537 12.762 178.396)" id="g1412" fill-rule="evenodd"><rect id="rect1396" ry="2.915" height="214.569" width="242.065" y="169.911" x="46.085" fill="#c8e6c9" stroke-width="1.056"/><path id="rect1398" fill="#66bb6a" stroke-width=".86" d="M62.96 287.969h206.453v27.192H62.96z"/><path id="rect1400" fill="#e8f5e9" stroke-width="1.76" d="M63.522 187.208h206.069v95.605H63.522z"/><path id="path1402" d="M228.209 232.24l-84.216 20.661-39.3-11.806-41.171 13.836v27.882H269.38v-36.857z" fill="#66bb6a" stroke-width="1.515"/><path id="rect1404" fill="#66bb6a" stroke-width="1.177" d="M63.116 324.661h206.137v8.833H63.116z"/><path id="rect1406" fill="#66bb6a" stroke-width="1.177" d="M63.116 340.125h206.137v8.833H63.116z"/><path id="rect1408" fill="#66bb6a" stroke-width="1.177" d="M63.116 355.682h151.741v8.833H63.116z"/><path id="rect1410" fill="#098ec9" fill-opacity="1" stroke-width=".488" d="M68.627 271.887h40.85v5.633h-40.85z"/></g><g id="g1430" transform="matrix(.77537 0 0 .77537 434.33 179.6)" fill-rule="evenodd"><rect x="46.085" y="169.911" width="242.065" height="214.569" ry="2.915" id="rect1414" fill="#c8e6c9" stroke-width="1.056"/><path id="rect1416" fill="#66bb6a" stroke-width=".86" d="M62.96 287.969h206.453v27.192H62.96z"/><path id="rect1418" fill="#e8f5e9" stroke-width="1.76" d="M63.522 187.208h206.069v95.605H63.522z"/><path d="M228.209 232.24l-84.216 20.661-39.3-11.806-41.171 13.836v27.882H269.38v-36.857z" id="path1420" fill="#66bb6a" stroke-width="1.515"/><path id="rect1422" fill="#66bb6a" stroke-width="1.177" d="M63.116 324.661h206.137v8.833H63.116z"/><path id="rect1424" fill="#66bb6a" stroke-width="1.177" d="M63.116 340.125h206.137v8.833H63.116z"/><path id="rect1426" fill="#66bb6a" stroke-width="1.177" d="M63.116 355.682h151.741v8.833H63.116z"/><path id="rect1428" fill="#098ec9" fill-opacity="1" stroke-width=".488" d="M68.627 271.887h40.85v5.633h-40.85z"/></g><g transform="matrix(.77537 0 0 .77537 224.14 179.6)" id="g1448" fill-rule="evenodd"><rect id="rect1432" ry="2.915" height="214.569" width="242.065" y="169.911" x="46.085" fill="#c8e6c9" stroke-width="1.056"/><path id="rect1434" fill="#66bb6a" stroke-width=".86" d="M62.96 287.969h206.453v27.192H62.96z"/><path id="rect1436" fill="#e8f5e9" stroke-width="1.76" d="M63.522 187.208h206.069v95.605H63.522z"/><path id="path1438" d="M228.209 232.24l-84.216 20.661-39.3-11.806-41.171 13.836v27.882H269.38v-36.857z" fill="#66bb6a" stroke-width="1.515"/><path id="rect1440" fill="#66bb6a" stroke-width="1.177" d="M63.116 324.661h206.137v8.833H63.116z"/><path id="rect1442" fill="#66bb6a" stroke-width="1.177" d="M63.116 340.125h206.137v8.833H63.116z"/><path id="rect1444" fill="#66bb6a" stroke-width="1.177" d="M63.116 355.682h151.741v8.833H63.116z"/><path id="rect1446" fill="#098ec9" fill-opacity="1" stroke-width=".488" d="M68.627 271.887h40.85v5.633h-40.85z"/></g></svg>