<svg xmlns="http://www.w3.org/2000/svg" width="750" height="550" version="1.1" viewBox="0 0 703.11806 515.61995" id="svg90"><path id="rect12" fill="#d3d3d4" fill-opacity="1" fill-rule="evenodd" stroke-width="1.06" d="M0 0h703.118v515.62H0z"/><path id="rect14" fill="#f9f9f9" fill-rule="evenodd" stroke-width="1.021" d="M31.9 52.767h643.228v418.049H31.9z"/><path id="rect26" fill="#66bb6a" fill-rule="evenodd" stroke-width="1.059" d="M31.9 50.776h643.228v83.876H31.9z"/><g id="g944" transform="matrix(.8198 0 0 .8198 14.952 12.128)" fill-rule="evenodd"><rect x="46.085" y="169.911" width="228.913" height="171.647" ry="2.332" id="rect24" fill="#c8e6c9" stroke-width=".919"/><path id="rect58" display="inline" fill="#e8f5e9" stroke-width="2.473" d="M46.086 169.911h228.909v169.776H46.086z"/><path d="M229.214 245.777l-93.649 39.13-43.7-22.36-45.784 26.204v52.807h228.917v-69.804z" id="path60" display="inline" fill="#66bb6a" stroke-width="2.198"/><path id="rect44" display="inline" fill="#cbc256" fill-opacity="1" stroke-width=".961" d="M51.361 303.004h219.338v32.011H51.361z"/><path id="rect937" display="inline" fill="#66bb6a" fill-opacity="1" stroke-width=".316" d="M220.118 174.128h50.06v15.144h-50.06z"/></g><g transform="matrix(.8198 0 0 .8198 223.508 13.832)" id="g1004" fill-rule="evenodd"><rect id="rect994" ry="2.332" height="171.647" width="228.913" y="169.911" x="46.085" fill="#c8e6c9" stroke-width=".919"/><path id="rect996" display="inline" fill="#e8f5e9" stroke-width="2.473" d="M46.086 169.911h228.909v169.776H46.086z"/><path id="path998" d="M229.214 245.777l-93.649 39.13-43.7-22.36-45.784 26.204v52.807h228.917v-69.804z" display="inline" fill="#66bb6a" stroke-width="2.198"/><path id="rect1000" display="inline" fill="#cbc256" fill-opacity="1" stroke-width=".961" d="M51.361 303.004h219.338v32.011H51.361z"/><path id="rect1002" display="inline" fill="#66bb6a" fill-opacity="1" stroke-width=".316" d="M220.118 174.128h50.06v15.144h-50.06z"/></g><g id="g1016" transform="matrix(.8198 0 0 .8198 431.723 13.832)" fill-rule="evenodd"><rect x="46.085" y="169.911" width="228.913" height="171.647" ry="2.332" id="rect1006" fill="#c8e6c9" stroke-width=".919"/><path id="rect1008" display="inline" fill="#e8f5e9" stroke-width="2.473" d="M46.086 169.911h228.909v169.776H46.086z"/><path d="M229.214 245.777l-93.649 39.13-43.7-22.36-45.784 26.204v52.807h228.917v-69.804z" id="path1010" display="inline" fill="#66bb6a" stroke-width="2.198"/><path id="rect1012" display="inline" fill="#cbc256" fill-opacity="1" stroke-width=".961" d="M51.361 303.004h219.338v32.011H51.361z"/><path id="rect1014" display="inline" fill="#66bb6a" fill-opacity="1" stroke-width=".316" d="M220.118 174.128h50.06v15.144h-50.06z"/></g><g transform="matrix(.8198 0 0 .8198 14.952 173.377)" id="g1028" fill-rule="evenodd"><rect id="rect1018" ry="2.332" height="171.647" width="228.913" y="169.911" x="46.085" fill="#c8e6c9" stroke-width=".919"/><path id="rect1020" display="inline" fill="#e8f5e9" stroke-width="2.473" d="M46.086 169.911h228.909v169.776H46.086z"/><path id="path1022" d="M229.214 245.777l-93.649 39.13-43.7-22.36-45.784 26.204v52.807h228.917v-69.804z" display="inline" fill="#66bb6a" stroke-width="2.198"/><path id="rect1024" display="inline" fill="#cbc256" fill-opacity="1" stroke-width=".961" d="M51.361 303.004h219.338v32.011H51.361z"/><path id="rect1026" display="inline" fill="#66bb6a" fill-opacity="1" stroke-width=".316" d="M220.118 174.128h50.06v15.144h-50.06z"/></g><g id="g1040" transform="matrix(.8198 0 0 .8198 223.508 175.08)" fill-rule="evenodd"><rect x="46.085" y="169.911" width="228.913" height="171.647" ry="2.332" id="rect1030" fill="#c8e6c9" stroke-width=".919"/><path id="rect1032" display="inline" fill="#e8f5e9" stroke-width="2.473" d="M46.086 169.911h228.909v169.776H46.086z"/><path d="M229.214 245.777l-93.649 39.13-43.7-22.36-45.784 26.204v52.807h228.917v-69.804z" id="path1034" display="inline" fill="#66bb6a" stroke-width="2.198"/><path id="rect1036" display="inline" fill="#cbc256" fill-opacity="1" stroke-width=".961" d="M51.361 303.004h219.338v32.011H51.361z"/><path id="rect1038" display="inline" fill="#66bb6a" fill-opacity="1" stroke-width=".316" d="M220.118 174.128h50.06v15.144h-50.06z"/></g><g transform="matrix(.8198 0 0 .8198 431.723 175.08)" id="g1052" fill-rule="evenodd"><rect id="rect1042" ry="2.332" height="171.647" width="228.913" y="169.911" x="46.085" fill="#c8e6c9" stroke-width=".919"/><path id="rect1044" display="inline" fill="#e8f5e9" stroke-width="2.473" d="M46.086 169.911h228.909v169.776H46.086z"/><path id="path1046" d="M229.214 245.777l-93.649 39.13-43.7-22.36-45.784 26.204v52.807h228.917v-69.804z" display="inline" fill="#66bb6a" stroke-width="2.198"/><path id="rect1048" display="inline" fill="#cbc256" fill-opacity="1" stroke-width=".961" d="M51.361 303.004h219.338v32.011H51.361z"/><path id="rect1050" display="inline" fill="#66bb6a" fill-opacity="1" stroke-width=".316" d="M220.118 174.128h50.06v15.144h-50.06z"/></g></svg>