<svg xmlns="http://www.w3.org/2000/svg" width="750" height="550" version="1.1" viewBox="0 0 703.11806 515.61995" id="svg90"><path id="rect12" fill="#d3d3d4" fill-opacity="1" fill-rule="evenodd" stroke-width="1.06" d="M0 0h703.118v515.62H0z"/><path id="rect14" fill="#f9f9f9" fill-rule="evenodd" stroke-width="1.044" d="M31.9 39.526h643.228v437.347H31.9z"/><path id="rect26" fill="#66bb6a" fill-rule="evenodd" stroke-width="1.059" d="M31.9 39.526h643.228v83.876H31.9z"/><g id="g1509" transform="translate(0 16.875)" fill-rule="evenodd"><rect x="56.26" y="124.018" width="593.715" height="147.696" ry="2.007" id="rect1378" fill="#c8e6c9" stroke-width="1.372"/><path id="rect1380" fill="#66bb6a" stroke-width="1.036" d="M248.31 137.43h386.693v21.084H248.31z"/><path id="rect1386" fill="#66bb6a" stroke-width="1.418" d="M248.603 165.88h386.102v6.849H248.603z"/><path id="rect1388" fill="#66bb6a" stroke-width="1.418" d="M248.603 177.87h386.102v6.849H248.603z"/><path id="rect1390" fill="#66bb6a" stroke-width="1.418" d="M248.603 250.51H532.82v6.849H248.603z"/><path id="rect1382" fill="#e8f5e9" stroke-width="1.764" d="M69.78 137.43h164.249v120.475H69.78z"/><path d="M201.045 194.177l-67.125 26.035-31.324-14.877-32.816 17.434v35.135h164.082V211.46z" id="path1384" fill="#66bb6a" stroke-width="1.518"/><path id="rect1487" fill="#66bb6a" stroke-width="1.418" d="M248.603 190.254h386.102v6.849H248.603z"/><path id="rect1489" fill="#66bb6a" stroke-width="1.418" d="M248.603 202.245h386.102v6.849H248.603z"/><path id="rect1491" fill="#66bb6a" stroke-width="1.418" d="M248.603 214.629h386.102v6.849H248.603z"/><path id="rect1493" fill="#66bb6a" stroke-width="1.418" d="M248.603 226.619h386.102v6.849H248.603z"/><path id="rect1495" fill="#66bb6a" stroke-width="1.418" d="M248.603 239.26H532.82v6.849H248.603z"/></g><g id="g1535" transform="translate(0 181.873)" fill-rule="evenodd"><rect id="rect1511" ry="2.007" height="147.696" width="593.715" y="124.018" x="56.26" fill="#c8e6c9" stroke-width="1.372"/><path id="rect1513" fill="#66bb6a" stroke-width="1.036" d="M248.31 137.43h386.693v21.084H248.31z"/><path id="rect1515" fill="#66bb6a" stroke-width="1.418" d="M248.603 165.88h386.102v6.849H248.603z"/><path id="rect1517" fill="#66bb6a" stroke-width="1.418" d="M248.603 177.87h386.102v6.849H248.603z"/><path id="rect1519" fill="#66bb6a" stroke-width="1.418" d="M248.603 250.51H532.82v6.849H248.603z"/><path id="rect1521" fill="#e8f5e9" stroke-width="1.764" d="M69.78 137.43h164.249v120.475H69.78z"/><path id="path1523" d="M201.045 194.177l-67.125 26.035-31.324-14.877-32.816 17.434v35.135h164.082V211.46z" fill="#66bb6a" stroke-width="1.518"/><path id="rect1525" fill="#66bb6a" stroke-width="1.418" d="M248.603 190.254h386.102v6.849H248.603z"/><path id="rect1527" fill="#66bb6a" stroke-width="1.418" d="M248.603 202.245h386.102v6.849H248.603z"/><path id="rect1529" fill="#66bb6a" stroke-width="1.418" d="M248.603 214.629h386.102v6.849H248.603z"/><path id="rect1531" fill="#66bb6a" stroke-width="1.418" d="M248.603 226.619h386.102v6.849H248.603z"/><path id="rect1533" fill="#66bb6a" stroke-width="1.418" d="M248.603 239.26H532.82v6.849H248.603z"/></g></svg>